<?xml version="1.0" encoding="UTF-8"?><svg id="_레이어_2" xmlns="http://www.w3.org/2000/svg" xmlns:xlink="http://www.w3.org/1999/xlink" viewBox="0 0 19 19"><defs><style>.cls-1{fill:#fff;}.cls-2{clip-path:url(#clippath);}.cls-3{fill:none;}</style><clipPath id="clippath"><rect class="cls-3" width="19" height="19"/></clipPath></defs><g id="_레이어_1-2"><g class="cls-2"><path class="cls-1" d="m4.15,7.19c-.36,0-.65.29-.65.65s.29.65.65.65.65-.29.65-.65-.29-.65-.65-.65Z"/><path class="cls-1" d="m10.61,7.12c-.39,0-.7.32-.7.7s.32.7.7.7.7-.32.7-.7-.32-.7-.7-.7Z"/><path class="cls-1" d="m16.46.69H2.54C1.14.69,0,1.83,0,3.23v8.26c0,1.4,1.14,2.54,2.54,2.54h4.92l1.67,3.94s.12.34.39.34h0c.28,0,.39-.34.39-.34l1.67-3.94h4.87c1.4,0,2.54-1.14,2.54-2.54V3.23c0-1.4-1.14-2.54-2.54-2.54ZM5.97,7.99c0,1.51-1.57,1.55-1.57,1.55-.6,0-.94-.4-.94-.4v.27h-1.14v-4.69s0,0,0,0h0c.07.01,1.14,0,1.14,0v1.79c.27-.46,1.04-.45,1.04-.45,1.68.16,1.47,1.92,1.47,1.92Zm2-1.78v3.21h-1.11v-3.18c0-.43-.54-.55-.54-.55v-1.12c1.78.07,1.65,1.64,1.65,1.64Zm2.64,3.33c-1.03,0-1.87-.77-1.87-1.72s.84-1.72,1.87-1.72,1.87.77,1.87,1.72-.84,1.72-1.87,1.72Zm6.1,0s.02,1.63-1.64,1.63h-.5v-1.06h.3s.7.06.69-1.01c0,0-.14.43-1.11.43,0,0-1.38-.1-1.38-1.45v-.51s.03-1.4,1.55-1.51c0,0,.6-.06.97.43v-.34h1.13v3.39Z"/><path class="cls-1" d="m14.94,7.14c-.38,0-.69.31-.69.69s.31.69.69.69.69-.31.69-.69-.31-.69-.69-.69Z"/></g></g></svg>