<?xml version="1.0" encoding="UTF-8"?><svg id="_레이어_2" xmlns="http://www.w3.org/2000/svg" xmlns:xlink="http://www.w3.org/1999/xlink" viewBox="0 0 19 19"><defs><style>.cls-1{fill:#fff;}.cls-2{clip-path:url(#clippath);}.cls-3{fill:none;}</style><clipPath id="clippath"><rect class="cls-3" width="19" height="19"/></clipPath></defs><g id="_레이어_1-2"><g class="cls-2"><path class="cls-1" d="m12.95.5h-6.91C2.98.5.5,2.98.5,6.05v6.91c0,3.06,2.48,5.55,5.55,5.55h6.91c3.06,0,5.55-2.48,5.55-5.55v-6.91c0-3.06-2.48-5.55-5.55-5.55Zm3.82,11.79c0,2.48-2.01,4.48-4.48,4.48h-5.58c-2.48,0-4.48-2.01-4.48-4.48v-5.58c0-2.47,2.01-4.48,4.48-4.48h5.58c2.47,0,4.48,2.01,4.48,4.48v5.58Z"/><path class="cls-1" d="m9.74,4.79c-2.62,0-4.74,2.12-4.74,4.74s2.12,4.74,4.74,4.74,4.74-2.12,4.74-4.74-2.12-4.74-4.74-4.74Zm0,7.59c-1.58,0-2.85-1.28-2.85-2.85s1.28-2.85,2.85-2.85,2.85,1.28,2.85,2.85-1.28,2.85-2.85,2.85Z"/><path class="cls-1" d="m15.36,4.72c0,.67-.54,1.21-1.21,1.21s-1.21-.54-1.21-1.21.54-1.21,1.21-1.21,1.21.54,1.21,1.21Z"/></g></g></svg>