<?xml version="1.0" encoding="UTF-8"?><svg id="_레이어_2" xmlns="http://www.w3.org/2000/svg" xmlns:xlink="http://www.w3.org/1999/xlink" viewBox="0 0 19 19"><defs><style>.cls-1{fill:#fff;}.cls-2{clip-path:url(#clippath);}.cls-3{fill:none;}</style><clipPath id="clippath"><rect class="cls-3" width="19" height="19"/></clipPath></defs><g id="_레이어_1-2"><g class="cls-2"><path class="cls-1" d="m9.5,0C4.54,0,.52,3.72.52,8.31c0,3.39,1.42,5.01,3.36,6.48h0v3.98c0,.19.21.3.36.18l3.41-2.53.07.03c.57.11,1.16.16,1.77.16,4.96,0,8.98-3.72,8.98-8.31S14.46,0,9.5,0m-3.01,10.41c.88,0,1.63-.53,1.86-1.34h1.3c-.32,1.57-1.54,2.59-3.16,2.59-1.89,0-3.38-1.41-3.38-3.37s1.5-3.37,3.38-3.37c1.64,0,2.87,1.05,3.17,2.64h-1.3c-.2-.87-.98-1.41-1.87-1.41-1.27,0-2.11.91-2.11,2.13s.96,2.11,2.11,2.11m8.58,1.12h-1.19v-2.69c0-.62-.36-.95-.92-.95-.62,0-1.02.38-1.02,1.15v2.5h-1.19v-6.59h1.19v2.48c.29-.43.75-.65,1.38-.65.51,0,.93.17,1.25.51.33.34.5.8.5,1.41v2.84Z"/></g></g></svg>